<svg width="25" height="25" viewBox="0 0 25 25" fill="none" xmlns="http://www.w3.org/2000/svg" aria-hidden="true">
  <path d="M0.388672 7.6755V1.59762L1.99246 0H7.96061V6.03404L6.3794 7.60918L0.388672 7.6755Z" fill="#FF7801"/>
  <path d="M8.65039 7.6755V1.59762L10.253 0H16.2211V6.03404L14.6399 7.60918L8.65039 7.6755Z" fill="#FF7801"/>
  <path d="M16.9121 7.6755V1.59762L18.5146 0H24.4828V6.03404L22.9016 7.60918L16.9121 7.6755Z" fill="#FF7801"/>
  <path d="M0.388672 16.3269V10.249L1.99246 8.65137H7.96061V14.6854L6.3794 16.2606L0.388672 16.3269Z" fill="#FF7801"/>
  <path d="M16.9121 16.3269V10.249L18.5146 8.65137H24.4828V14.6854L22.9016 16.2606L16.9121 16.3269Z" fill="#FF7801"/>
  <path d="M0.388672 24.9782V18.9003L1.99246 17.3027H7.96061V23.3367L6.3794 24.9119L0.388672 24.9782Z" fill="#FF7801"/>
  <path d="M8.65039 24.9782V18.9003L10.253 17.3027H16.2211V23.3367L14.6399 24.9119L8.65039 24.9782Z" fill="#FF7801"/>
</svg>
